<svg width="24" height="24" viewBox="0 0 24 24" fill="none" xmlns="http://www.w3.org/2000/svg">
<g id="discord">
<path id="Vector" d="M8.48029 5C7.80285 5 5.76047 5.78357 5.39405 5.94016C5.02763 6.09676 4.62091 6.5856 4.15943 7.39239C3.69731 8.19918 3.32648 9.14232 2.72397 10.5296C2.12208 11.917 1.98168 14.5916 2.00183 15.4079C2.02197 16.2242 2.12082 16.8619 3.00539 17.3448C3.88933 17.8271 4.67128 18.332 5.49415 18.6357C6.31765 18.9393 6.87925 19.1578 7.26078 18.8542C7.64231 18.5505 7.89351 18.0188 7.89351 18.0188C7.89351 18.0188 8.2549 17.5443 7.57242 17.2597C6.88995 16.9744 6.54871 16.775 6.5783 16.4808C6.60852 16.1867 6.65826 16.0253 6.82888 16.0635C6.9995 16.1016 7.4018 16.7845 8.94744 17.0977C10.4931 17.4109 11.9997 17.3638 11.9997 17.3638C11.9997 17.3638 13.5069 17.4115 15.0526 17.0977C16.5982 16.7845 16.9999 16.1016 17.1705 16.0635C17.3411 16.0253 17.3908 16.1867 17.4211 16.4802C17.4513 16.775 17.1101 16.9744 16.4276 17.2597C15.7451 17.5443 16.1065 18.0188 16.1065 18.0188C16.1065 18.0188 16.3577 18.5499 16.7392 18.8542C17.1201 19.1578 17.6823 18.9393 18.5052 18.6357C19.3281 18.332 20.1107 17.8277 20.9946 17.3448C21.8792 16.8619 21.978 16.2242 21.9982 15.4079C22.0183 14.5922 21.8779 11.917 21.2754 10.5296C20.6735 9.14232 20.3021 8.19918 19.8399 7.39239C19.3791 6.5856 18.9717 6.09676 18.606 5.93957C18.2395 5.78357 16.1965 5 15.5191 5C14.8416 5 14.6414 5.44656 14.6414 5.44656L14.4053 5.94016C14.4053 5.94016 12.8188 5.65496 12.0104 5.65436C11.202 5.65436 9.59466 5.94016 9.59466 5.94016L9.35856 5.44597C9.35856 5.44597 9.15836 5 8.48029 5ZM8.55395 10.9232H8.57913C9.56696 10.9232 10.3672 11.7407 10.3672 12.7488C10.3672 13.7574 9.56696 14.5743 8.57913 14.5743C7.59131 14.5743 6.7911 13.7574 6.7911 12.7488C6.79047 11.7503 7.5762 10.9369 8.55395 10.9232ZM15.4209 10.9232H15.446C16.4238 10.9369 17.2089 11.7508 17.2089 12.7488C17.2089 13.7574 16.4087 14.5743 15.4209 14.5743C14.4324 14.5743 13.6328 13.7574 13.6328 12.7488C13.6328 11.7407 14.4324 10.9232 15.4209 10.9232Z" fill="#637592"/>
</g>
</svg>
