<svg width="62" height="70" viewBox="0 0 62 70" fill="none" xmlns="http://www.w3.org/2000/svg">
<g clip-path="url(#clip0_14_14894)">
<path d="M30.5364 8.74711V17.5019L38.1743 13.1283V4.37354L30.5364 8.74711Z" fill="#2129DB"/>
<path d="M30.5364 8.74714L38.1743 4.37357L30.5364 0L22.9061 4.37357L30.5364 8.74714Z" fill="#00FFBB"/>
<path d="M22.9061 13.1283V4.37354L30.5364 8.74711V17.5019L22.9061 13.1283Z" fill="#0A1393"/>
<path d="M22.9061 13.1283V21.8754L30.5364 17.5018V8.74707L22.9061 13.1283Z" fill="#2129DB"/>
<path d="M22.9061 13.1283L30.5364 8.74711L22.9061 4.37354L15.2682 8.74711L22.9061 13.1283Z" fill="#00FFBB"/>
<path d="M15.2682 17.5018V8.74707L22.9061 13.1283V21.8754L15.2682 17.5018Z" fill="#0A1393"/>
<path d="M38.1743 13.1283V21.8754L45.8046 17.5018V8.74707L38.1743 13.1283Z" fill="#2129DB"/>
<path d="M38.1743 13.1283L45.8046 8.74711L38.1743 4.37354L30.5364 8.74711L38.1743 13.1283Z" fill="#2F37FF"/>
<path d="M30.5364 17.5018V8.74707L38.1743 13.1283V21.8754L30.5364 17.5018Z" fill="#0A1393"/>
<path d="M7.63794 48.1246V56.8793L15.2682 52.5057V43.751L7.63794 48.1246Z" fill="#006B7A"/>
<path d="M7.63794 48.1246L15.2682 43.751L7.63794 39.3774L0 43.751L7.63794 48.1246Z" fill="#2F37FF"/>
<path d="M0 52.5057V43.751L7.63794 48.1246V56.8793L0 52.5057Z" fill="#00A57E"/>
<path d="M7.63794 39.3775V48.1246L15.2682 43.7511V35.0039L7.63794 39.3775Z" fill="#006B7A"/>
<path d="M7.63794 39.3773L15.2682 35.0037L7.63794 30.6301L0 35.0037L7.63794 39.3773Z" fill="#2F37FF"/>
<path d="M0 43.7511V35.0039L7.63794 39.3775V48.1246L0 43.7511Z" fill="#00A57E"/>
<path d="M7.63794 30.6302V39.3774L15.2682 35.0038V26.249L7.63794 30.6302Z" fill="#2129DB"/>
<path d="M7.63794 30.6303L15.2682 26.2491L7.63794 21.8755L0 26.2491L7.63794 30.6303Z" fill="#2F37FF"/>
<path d="M0 35.0038V26.249L7.63794 30.6302V39.3774L0 35.0038Z" fill="#00A57E"/>
<path d="M38.1743 56.8792V65.6263L45.8046 61.2528V52.5056L38.1743 56.8792Z" fill="#2129DB"/>
<path d="M38.1743 56.8793L45.8046 52.5057L38.1743 48.1245L30.5364 52.5057L38.1743 56.8793Z" fill="#2F37FF"/>
<path d="M30.5364 61.2528V52.5056L38.1743 56.8792V65.6263L30.5364 61.2528Z" fill="#0A1393"/>
<path d="M30.5364 52.5057V61.2528L38.1743 56.8793V48.1245L30.5364 52.5057Z" fill="#2129DB"/>
<path d="M30.5364 52.5057L38.1743 48.1246L30.5364 43.751L22.9061 48.1246L30.5364 52.5057Z" fill="#2F37FF"/>
<path d="M22.9061 56.8793V48.1245L30.5364 52.5057V61.2528L22.9061 56.8793Z" fill="#0A1393"/>
<path d="M38.1743 30.6302V39.3774L45.8046 35.0038V26.249L38.1743 30.6302Z" fill="#2129DB"/>
<path d="M38.1743 30.6303L45.8046 26.2491L38.1743 21.8755L30.5364 26.2491L38.1743 30.6303Z" fill="#2F37FF"/>
<path d="M30.5364 35.0038V26.249L38.1743 30.6302V39.3774L30.5364 35.0038Z" fill="#0A1393"/>
<path d="M15.2682 35.0037V43.7508L22.9061 39.3773V30.6301L15.2682 35.0037Z" fill="#2129DB"/>
<path d="M15.2682 35.0038L22.9061 30.6302L15.2682 26.249L7.63794 30.6302L15.2682 35.0038Z" fill="#2F37FF"/>
<path d="M7.63794 39.3773V30.6301L15.2682 35.0037V43.7508L7.63794 39.3773Z" fill="#00A57E"/>
<path d="M22.9061 56.8792V65.6263L30.5364 61.2528V52.5056L22.9061 56.8792Z" fill="#2129DB"/>
<path d="M22.9061 56.8793L30.5364 52.5057L22.9061 48.1245L15.2682 52.5057L22.9061 56.8793Z" fill="#2F37FF"/>
<path d="M15.2682 61.2528V52.5056L22.9061 56.8792V65.6263L15.2682 61.2528Z" fill="#00A57E"/>
<path d="M22.9061 48.1246V56.8793L30.5364 52.5057V43.751L22.9061 48.1246Z" fill="#2129DB"/>
<path d="M22.9061 48.1246L30.5364 43.751L22.9061 39.3774L15.2682 43.751L22.9061 48.1246Z" fill="#2F37FF"/>
<path d="M15.2682 52.5057V43.751L22.9061 48.1246V56.8793L15.2682 52.5057Z" fill="#00A57E"/>
<path d="M22.9061 39.3775V48.1246L30.5364 43.7511V35.0039L22.9061 39.3775Z" fill="#2129DB"/>
<path d="M22.9061 39.3773L30.5364 35.0037L22.9061 30.6301L15.2682 35.0037L22.9061 39.3773Z" fill="#2F37FF"/>
<path d="M15.2682 43.7511V35.0039L22.9061 39.3775V48.1246L15.2682 43.7511Z" fill="#00A57E"/>
<path d="M15.2682 17.502V26.2491L22.9061 21.8756V13.1284L15.2682 17.502Z" fill="#006B7A"/>
<path d="M15.2682 17.5018L22.9061 13.1283L15.2682 8.74707L7.63794 13.1283L15.2682 17.5018Z" fill="#00FFBB"/>
<path d="M7.63794 21.8756V13.1284L15.2682 17.502V26.2491L7.63794 21.8756Z" fill="#0A1393"/>
<path d="M30.5364 17.502V26.2491L38.1743 21.8756V13.1284L30.5364 17.502Z" fill="#2129DB"/>
<path d="M30.5364 17.5018L38.1743 13.1283L30.5364 8.74707L22.9061 13.1283L30.5364 17.5018Z" fill="#00FFBB"/>
<path d="M22.9061 21.8756V13.1284L30.5364 17.502V26.2491L22.9061 21.8756Z" fill="#00A57E"/>
<path d="M45.8047 17.502V26.2491L53.4426 21.8756V13.1284L45.8047 17.502Z" fill="#2129DB"/>
<path d="M45.8046 17.5018L53.4425 13.1283L45.8046 8.74707L38.1743 13.1283L45.8046 17.5018Z" fill="#2F37FF"/>
<path d="M38.1743 21.8756V13.1284L45.8046 17.502V26.2491L38.1743 21.8756Z" fill="#0A1393"/>
<path d="M38.1743 21.8755V30.6303L45.8046 26.2491V17.502L38.1743 21.8755Z" fill="#2129DB"/>
<path d="M38.1743 21.8756L45.8046 17.502L38.1743 13.1284L30.5364 17.502L38.1743 21.8756Z" fill="#2F37FF"/>
<path d="M30.5364 26.2491V17.502L38.1743 21.8755V30.6303L30.5364 26.2491Z" fill="#0A1393"/>
<path d="M7.63794 21.8755V30.6303L15.2682 26.2491V17.502L7.63794 21.8755Z" fill="#2129DB"/>
<path d="M7.63794 21.8756L15.2682 17.502L7.63794 13.1284L0 17.502L7.63794 21.8756Z" fill="#2F37FF"/>
<path d="M0 26.2491V17.502L7.63794 21.8755V30.6303L0 26.2491Z" fill="#0A1393"/>
<path d="M15.2682 26.2491V35.0038L22.9061 30.6302V21.8755L15.2682 26.2491Z" fill="#2129DB"/>
<path d="M15.2682 26.2491L22.9061 21.8755L15.2682 17.502L7.63794 21.8755L15.2682 26.2491Z" fill="#2F37FF"/>
<path d="M7.63794 30.6302V21.8755L15.2682 26.2491V35.0038L7.63794 30.6302Z" fill="#0A1393"/>
<path d="M30.5364 26.2491V35.0038L38.1743 30.6302V21.8755L30.5364 26.2491Z" fill="#2129DB"/>
<path d="M30.5364 26.2491L38.1743 21.8755L30.5364 17.502L22.9061 21.8755L30.5364 26.2491Z" fill="#2F37FF"/>
<path d="M22.9061 30.6302V21.8755L30.5364 26.2491V35.0038L22.9061 30.6302Z" fill="#0A1393"/>
<path d="M22.9061 30.6302V39.3774L30.5364 35.0038V26.249L22.9061 30.6302Z" fill="#2129DB"/>
<path d="M22.9061 30.6303L30.5364 26.2491L22.9061 21.8755L15.2682 26.2491L22.9061 30.6303Z" fill="#2F37FF"/>
<path d="M15.2682 35.0038V26.249L22.9061 30.6302V39.3774L15.2682 35.0038Z" fill="#0A1393"/>
<path d="M53.4426 39.3775V48.1246L61.0806 43.7511V35.0039L53.4426 39.3775Z" fill="#2129DB"/>
<path d="M53.4426 39.3773L61.0806 35.0037L53.4426 30.6301L45.8047 35.0037L53.4426 39.3773Z" fill="#2F37FF"/>
<path d="M45.8047 43.7511V35.0039L53.4426 39.3775V48.1246L45.8047 43.7511Z" fill="#0A1393"/>
<path d="M53.4426 30.6302V39.3774L61.0806 35.0038V26.249L53.4426 30.6302Z" fill="#2129DB"/>
<path d="M53.4426 30.6303L61.0806 26.2491L53.4426 21.8755L45.8047 26.2491L53.4426 30.6303Z" fill="#2F37FF"/>
<path d="M45.8047 35.0038V26.249L53.4426 30.6302V39.3774L45.8047 35.0038Z" fill="#0A1393"/>
<path d="M53.4426 21.8755V30.6303L61.0806 26.2491V17.502L53.4426 21.8755Z" fill="url(#paint0_linear_14_14894)"/>
<path d="M53.4426 21.8756L61.0806 17.502L53.4426 13.1284L45.8047 17.502L53.4426 21.8756Z" fill="#00FFBB"/>
<path d="M45.8047 26.2491V17.502L53.4426 21.8755V30.6303L45.8047 26.2491Z" fill="#0A1393"/>
<path d="M45.8047 52.5057V61.2528L53.4426 56.8793V48.1245L45.8047 52.5057Z" fill="#2129DB"/>
<path d="M45.8046 52.5057L53.4425 48.1246L45.8046 43.751L38.1743 48.1246L45.8046 52.5057Z" fill="#2F37FF"/>
<path d="M38.1743 56.8793V48.1245L45.8046 52.5057V61.2528L38.1743 56.8793Z" fill="#0A1393"/>
<path d="M45.8047 43.751V52.5058L53.4426 48.1246V39.3774L45.8047 43.751Z" fill="url(#paint1_linear_14_14894)"/>
<path d="M45.8046 43.751L53.4425 39.3775L45.8046 35.0039L38.1743 39.3775L45.8046 43.751Z" fill="#006B7A"/>
<path d="M38.1743 48.1246V39.3774L45.8046 43.751V52.5058L38.1743 48.1246Z" fill="#0A1393"/>
<path d="M45.8047 26.2491V35.0038L53.4426 30.6302V21.8755L45.8047 26.2491Z" fill="url(#paint2_linear_14_14894)"/>
<path d="M45.8046 26.2491L53.4425 21.8755L45.8046 17.502L38.1743 21.8755L45.8046 26.2491Z" fill="#00FFBB"/>
<path d="M38.1743 30.6302V21.8755L45.8046 26.2491V35.0038L38.1743 30.6302Z" fill="#0A1393"/>
<path d="M38.1743 56.8792V65.6263L45.8046 61.2528V52.5056L38.1743 56.8792Z" fill="url(#paint3_linear_14_14894)"/>
<path d="M38.1743 56.8793L45.8046 52.5057L38.1743 48.1245L30.5364 52.5057L38.1743 56.8793Z" fill="#2F37FF"/>
<path d="M30.5364 61.2528V52.5056L38.1743 56.8792V65.6263L30.5364 61.2528Z" fill="#0A1393"/>
<path d="M38.1743 48.1246V56.8793L45.8046 52.5057V43.751L38.1743 48.1246Z" fill="url(#paint4_linear_14_14894)"/>
<path d="M38.1743 48.1246L45.8046 43.751L38.1743 39.3774L30.5364 43.751L38.1743 48.1246Z" fill="#2F37FF"/>
<path d="M30.5364 52.5057V43.751L38.1743 48.1246V56.8793L30.5364 52.5057Z" fill="#0A1393"/>
<path d="M38.1743 39.3775V48.1246L45.8046 43.7511V35.0039L38.1743 39.3775Z" fill="url(#paint5_linear_14_14894)"/>
<path d="M38.1743 39.3773L45.8046 35.0037L38.1743 30.6301L30.5364 35.0037L38.1743 39.3773Z" fill="#2F37FF"/>
<path d="M30.5364 43.7511V35.0039L38.1743 39.3775V48.1246L30.5364 43.7511Z" fill="#00A57E"/>
<path d="M38.1743 30.6302V39.3774L45.8046 35.0038V26.249L38.1743 30.6302Z" fill="url(#paint6_linear_14_14894)"/>
<path d="M38.1743 30.6303L45.8046 26.2491L38.1743 21.8755L30.5364 26.2491L38.1743 30.6303Z" fill="#00FFBB"/>
<path d="M30.5364 35.0038V26.249L38.1743 30.6302V39.3774L30.5364 35.0038Z" fill="#00A57E"/>
<path d="M30.5364 61.253V70.0077L38.1743 65.6265V56.8794L30.5364 61.253Z" fill="#2129DB"/>
<path d="M30.5364 61.2528L38.1743 56.8792L30.5364 52.5056L22.9061 56.8792L30.5364 61.2528Z" fill="#2F37FF"/>
<path d="M22.9061 65.6265V56.8794L30.5364 61.253V70.0077L22.9061 65.6265Z" fill="#0A1393"/>
<path d="M30.5364 52.5057V61.2528L38.1743 56.8793V48.1245L30.5364 52.5057Z" fill="#2129DB"/>
<path d="M30.5364 52.5057L38.1743 48.1246L30.5364 43.751L22.9061 48.1246L30.5364 52.5057Z" fill="#2F37FF"/>
<path d="M22.9061 56.8793V48.1245L30.5364 52.5057V61.2528L22.9061 56.8793Z" fill="#0A1393"/>
<path d="M30.5364 43.751V52.5058L38.1743 48.1246V39.3774L30.5364 43.751Z" fill="#2129DB"/>
<path d="M30.5364 43.751L38.1743 39.3775L30.5364 35.0039L22.9061 39.3775L30.5364 43.751Z" fill="#2F37FF"/>
<path d="M22.9061 48.1246V39.3774L30.5364 43.751V52.5058L22.9061 48.1246Z" fill="#0A1393"/>
</g>
<defs>
<linearGradient id="paint0_linear_14_14894" x1="58.2173" y1="23.1404" x2="36.6193" y2="44.2315" gradientUnits="userSpaceOnUse">
<stop stop-color="#00FFBB"/>
<stop offset="1" stop-color="#00C1FF"/>
</linearGradient>
<linearGradient id="paint1_linear_14_14894" x1="65.5328" y1="30.6379" x2="43.9349" y2="51.7291" gradientUnits="userSpaceOnUse">
<stop stop-color="#00FFBB"/>
<stop offset="1" stop-color="#00C1FF"/>
</linearGradient>
<linearGradient id="paint2_linear_14_14894" x1="56.7204" y1="21.6088" x2="35.1225" y2="42.7" gradientUnits="userSpaceOnUse">
<stop stop-color="#00FFBB"/>
<stop offset="1" stop-color="#00C1FF"/>
</linearGradient>
<linearGradient id="paint3_linear_14_14894" x1="68.4421" y1="33.617" x2="46.8441" y2="54.7082" gradientUnits="userSpaceOnUse">
<stop stop-color="#00FFBB"/>
<stop offset="1" stop-color="#00C1FF"/>
</linearGradient>
<linearGradient id="paint4_linear_14_14894" x1="64.0359" y1="29.1064" x2="42.4379" y2="50.1975" gradientUnits="userSpaceOnUse">
<stop stop-color="#00FFBB"/>
<stop offset="1" stop-color="#00C1FF"/>
</linearGradient>
<linearGradient id="paint5_linear_14_14894" x1="59.6297" y1="24.5881" x2="38.0317" y2="45.6793" gradientUnits="userSpaceOnUse">
<stop stop-color="#00FFBB"/>
<stop offset="1" stop-color="#00C1FF"/>
</linearGradient>
<linearGradient id="paint6_linear_14_14894" x1="55.2234" y1="20.0773" x2="33.6255" y2="41.1684" gradientUnits="userSpaceOnUse">
<stop stop-color="#00FFBB"/>
<stop offset="1" stop-color="#00C1FF"/>
</linearGradient>
<clipPath id="clip0_14_14894">
<rect width="61.0805" height="70" fill="white"/>
</clipPath>
</defs>
</svg>
