<svg width="24" height="24" viewBox="0 0 24 24" fill="none" xmlns="http://www.w3.org/2000/svg">
<g clip-path="url(#clip0_130_286)">
<path d="M12 22C17.5228 22 22 17.5228 22 12C22 6.47715 17.5228 2 12 2C6.47715 2 2 6.47715 2 12C2 17.5228 6.47715 22 12 22Z" fill="#F0F0F0"/>
<path d="M4.06718 5.9118C3.28167 6.9338 2.68937 8.11173 2.34448 9.39137H7.54675L4.06718 5.9118Z" fill="#0052B4"/>
<path d="M21.6556 9.39137C21.3107 8.11176 20.7183 6.93383 19.9329 5.91183L16.4534 9.39137H21.6556Z" fill="#0052B4"/>
<path d="M2.34448 14.6087C2.6894 15.8884 3.28171 17.0663 4.06718 18.0882L7.54663 14.6087H2.34448Z" fill="#0052B4"/>
<path d="M18.0882 4.06723C17.0662 3.28172 15.8883 2.68942 14.6086 2.3445V7.54672L18.0882 4.06723Z" fill="#0052B4"/>
<path d="M5.91187 19.9328C6.93386 20.7183 8.11179 21.3106 9.3914 21.6555V16.4533L5.91187 19.9328Z" fill="#0052B4"/>
<path d="M9.39136 2.3445C8.11175 2.68942 6.93382 3.28172 5.91187 4.06719L9.39136 7.54669V2.3445Z" fill="#0052B4"/>
<path d="M14.6086 21.6555C15.8883 21.3106 17.0662 20.7183 18.0881 19.9328L14.6086 16.4533V21.6555Z" fill="#0052B4"/>
<path d="M16.4534 14.6087L19.9329 18.0883C20.7183 17.0663 21.3107 15.8884 21.6556 14.6087H16.4534Z" fill="#0052B4"/>
<path d="M21.9154 10.6957H13.3044H13.3044V2.08465C12.8774 2.02906 12.4421 2 12 2C11.5579 2 11.1226 2.02906 10.6957 2.08465V10.6956V10.6956H2.08465C2.02906 11.1226 2 11.5579 2 12C2 12.4421 2.02906 12.8774 2.08465 13.3043H10.6956H10.6956V21.9154C11.1226 21.9709 11.5579 22 12 22C12.4421 22 12.8774 21.971 13.3043 21.9154V13.3044V13.3044H21.9154C21.9709 12.8774 22 12.4421 22 12C22 11.5579 21.9709 11.1226 21.9154 10.6957Z" fill="#D80027"/>
<path d="M14.6086 14.6087L19.071 19.0711C19.2762 18.8659 19.472 18.6514 19.6588 18.4291L15.8384 14.6087H14.6086V14.6087Z" fill="#D80027"/>
<path d="M9.39134 14.6087H9.39126L4.92896 19.0711C5.13411 19.2763 5.3486 19.4721 5.57095 19.6589L9.39134 15.8384V14.6087Z" fill="#D80027"/>
<path d="M9.39122 9.39137V9.39129L4.92888 4.92891C4.72364 5.13407 4.52786 5.34856 4.34106 5.5709L8.16149 9.39133H9.39122V9.39137Z" fill="#D80027"/>
<path d="M14.6086 9.39137L19.071 4.92895C18.8659 4.72371 18.6514 4.52793 18.429 4.34117L14.6086 8.16161V9.39137Z" fill="#D80027"/>
</g>
<defs>
<clipPath id="clip0_130_286">
<rect width="20" height="20" fill="white" transform="translate(2 2)"/>
</clipPath>
</defs>
</svg>
