<svg width="20" height="20" viewBox="0 0 20 20" fill="none" xmlns="http://www.w3.org/2000/svg">
<g id="discord">
<path id="Vector" d="M7.06699 4.16675C6.50246 4.16675 4.80047 4.81972 4.49512 4.95022C4.18977 5.08071 3.85084 5.48808 3.46627 6.1604C3.08117 6.83273 2.77215 7.61868 2.27005 8.77478C1.76848 9.93089 1.65148 12.1597 1.66827 12.84C1.68506 13.5203 1.76743 14.0517 2.50457 14.4541C3.24119 14.856 3.89282 15.2767 4.57854 15.5298C5.26479 15.7829 5.73279 15.9649 6.05073 15.7119C6.36867 15.4588 6.57801 15.0158 6.57801 15.0158C6.57801 15.0158 6.87916 14.6203 6.31043 14.3831C5.74171 14.1455 5.45734 13.9792 5.482 13.7341C5.50718 13.489 5.54863 13.3545 5.69081 13.3863C5.833 13.418 6.16825 13.9872 7.45628 14.2482C8.74432 14.5092 9.99982 14.47 9.99982 14.47C9.99982 14.47 11.2558 14.5096 12.5439 14.2482C13.8319 13.9872 14.1666 13.418 14.3088 13.3863C14.451 13.3545 14.4925 13.489 14.5176 13.7336C14.5428 13.9792 14.2585 14.1455 13.6897 14.3831C13.121 14.6203 13.4222 15.0158 13.4222 15.0158C13.4222 15.0158 13.6315 15.4583 13.9494 15.7119C14.2669 15.9649 14.7354 15.7829 15.4211 15.5298C16.1068 15.2767 16.759 14.8565 17.4956 14.4541C18.2327 14.0517 18.3151 13.5203 18.3319 12.84C18.3487 12.1602 18.2317 9.93089 17.7296 8.77478C17.228 7.61868 16.9185 6.83273 16.5334 6.1604C16.1493 5.48808 15.8099 5.08071 15.505 4.94972C15.1997 4.81972 13.4972 4.16675 12.9327 4.16675C12.3681 4.16675 12.2013 4.53888 12.2013 4.53888L12.0045 4.95022C12.0045 4.95022 10.6824 4.71255 10.0087 4.71205C9.33508 4.71205 7.99563 4.95022 7.99563 4.95022L7.79888 4.53839C7.79888 4.53839 7.63204 4.16675 7.06699 4.16675ZM7.12837 9.10276H7.14936C7.97255 9.10276 8.63938 9.78402 8.63938 10.6241C8.63938 11.4646 7.97255 12.1453 7.14936 12.1453C6.32617 12.1453 5.65933 11.4646 5.65933 10.6241C5.65881 9.79196 6.31358 9.11417 7.12837 9.10276ZM12.8508 9.10276H12.8718C13.6866 9.11417 14.3408 9.79245 14.3408 10.6241C14.3408 11.4646 13.674 12.1453 12.8508 12.1453C12.0271 12.1453 11.3608 11.4646 11.3608 10.6241C11.3608 9.78402 12.0271 9.10276 12.8508 9.10276Z" fill="white"/>
</g>
</svg>
