<svg width="147" height="32" viewBox="0 0 147 32" fill="none" xmlns="http://www.w3.org/2000/svg">
<g clip-path="url(#clip0_130_147)">
<path d="M13.9595 3.99869V8.00087L17.4511 6.00152V1.99934L13.9595 3.99869Z" fill="#2129DB"/>
<path d="M13.9596 3.99869L17.4512 1.99935L13.9596 0L10.4714 1.99935L13.9596 3.99869Z" fill="#00FFBB"/>
<path d="M10.4714 6.00152V1.99934L13.9596 3.99869V8.00087L10.4714 6.00152Z" fill="#0A1393"/>
<path d="M10.4714 6.00152V10.0002L13.9596 8.00086V3.99869L10.4714 6.00152Z" fill="#2129DB"/>
<path d="M10.4714 6.00152L13.9595 3.99869L10.4714 1.99934L6.97974 3.99869L10.4714 6.00152Z" fill="#00FFBB"/>
<path d="M6.97974 8.00086V3.99869L10.4714 6.00152V10.0002L6.97974 8.00086Z" fill="#0A1393"/>
<path d="M17.4512 6.00152V10.0002L20.9393 8.00086V3.99869L17.4512 6.00152Z" fill="#2129DB"/>
<path d="M17.4511 6.00152L20.9392 3.99869L17.4511 1.99934L13.9595 3.99869L17.4511 6.00152Z" fill="#2F37FF"/>
<path d="M13.9595 8.00086V3.99869L17.4511 6.00152V10.0002L13.9595 8.00086Z" fill="#0A1393"/>
<path d="M3.49158 21.9998V26.002L6.9797 24.0026V20.0004L3.49158 21.9998Z" fill="#006B7A"/>
<path d="M3.49163 21.9998L6.97975 20.0004L3.49163 18.0011L0 20.0004L3.49163 21.9998Z" fill="#2F37FF"/>
<path d="M0 24.0026V20.0004L3.49163 21.9998V26.002L0 24.0026Z" fill="#00A57E"/>
<path d="M3.49158 18.0011V21.9998L6.9797 20.0004V16.0017L3.49158 18.0011Z" fill="#006B7A"/>
<path d="M3.49163 18.0011L6.97975 16.0017L3.49163 14.0024L0 16.0017L3.49163 18.0011Z" fill="#2F37FF"/>
<path d="M0 20.0004V16.0017L3.49163 18.0011V21.9998L0 20.0004Z" fill="#00A57E"/>
<path d="M3.49158 14.0024V18.0011L6.9797 16.0017V11.9996L3.49158 14.0024Z" fill="#2129DB"/>
<path d="M3.49163 14.0024L6.97975 11.9996L3.49163 10.0002L0 11.9996L3.49163 14.0024Z" fill="#2F37FF"/>
<path d="M0 16.0017V11.9996L3.49163 14.0024V18.0011L0 16.0017Z" fill="#00A57E"/>
<path d="M17.4512 26.002V30.0006L20.9393 28.0013V24.0026L17.4512 26.002Z" fill="#2129DB"/>
<path d="M17.4511 26.002L20.9392 24.0026L17.4511 21.9998L13.9595 24.0026L17.4511 26.002Z" fill="#2F37FF"/>
<path d="M13.9595 28.0013V24.0026L17.4511 26.002V30.0006L13.9595 28.0013Z" fill="#0A1393"/>
<path d="M13.9595 24.0026V28.0013L17.4511 26.002V21.9998L13.9595 24.0026Z" fill="#2129DB"/>
<path d="M13.9596 24.0026L17.4512 21.9998L13.9596 20.0004L10.4714 21.9998L13.9596 24.0026Z" fill="#2F37FF"/>
<path d="M10.4714 26.002V21.9998L13.9596 24.0026V28.0013L10.4714 26.002Z" fill="#0A1393"/>
<path d="M17.4512 14.0024V18.0011L20.9393 16.0017V11.9996L17.4512 14.0024Z" fill="#2129DB"/>
<path d="M17.4511 14.0024L20.9392 11.9996L17.4511 10.0002L13.9595 11.9996L17.4511 14.0024Z" fill="#2F37FF"/>
<path d="M13.9595 16.0017V11.9996L17.4511 14.0024V18.0011L13.9595 16.0017Z" fill="#0A1393"/>
<path d="M6.97974 16.0017V20.0004L10.4714 18.0011V14.0024L6.97974 16.0017Z" fill="#2129DB"/>
<path d="M6.9797 16.0017L10.4713 14.0024L6.9797 11.9996L3.49158 14.0024L6.9797 16.0017Z" fill="#2F37FF"/>
<path d="M3.49158 18.0011V14.0024L6.9797 16.0017V20.0004L3.49158 18.0011Z" fill="#00A57E"/>
<path d="M10.4714 26.002V30.0006L13.9596 28.0013V24.0026L10.4714 26.002Z" fill="#2129DB"/>
<path d="M10.4714 26.002L13.9595 24.0026L10.4714 21.9998L6.97974 24.0026L10.4714 26.002Z" fill="#2F37FF"/>
<path d="M6.97974 28.0013V24.0026L10.4714 26.002V30.0006L6.97974 28.0013Z" fill="#00A57E"/>
<path d="M10.4714 21.9998V26.002L13.9596 24.0026V20.0004L10.4714 21.9998Z" fill="#2129DB"/>
<path d="M10.4714 21.9998L13.9595 20.0004L10.4714 18.0011L6.97974 20.0004L10.4714 21.9998Z" fill="#2F37FF"/>
<path d="M6.97974 24.0026V20.0004L10.4714 21.9998V26.002L6.97974 24.0026Z" fill="#00A57E"/>
<path d="M10.4714 18.0011V21.9998L13.9596 20.0004V16.0017L10.4714 18.0011Z" fill="#2129DB"/>
<path d="M10.4714 18.0011L13.9595 16.0017L10.4714 14.0024L6.97974 16.0017L10.4714 18.0011Z" fill="#2F37FF"/>
<path d="M6.97974 20.0004V16.0017L10.4714 18.0011V21.9998L6.97974 20.0004Z" fill="#00A57E"/>
<path d="M6.97974 8.00087V11.9996L10.4714 10.0002V6.00153L6.97974 8.00087Z" fill="#006B7A"/>
<path d="M6.9797 8.00086L10.4713 6.00152L6.9797 3.99869L3.49158 6.00152L6.9797 8.00086Z" fill="#00FFBB"/>
<path d="M3.49158 10.0002V6.00153L6.9797 8.00087V11.9996L3.49158 10.0002Z" fill="#0A1393"/>
<path d="M13.9595 8.00087V11.9996L17.4511 10.0002V6.00153L13.9595 8.00087Z" fill="#2129DB"/>
<path d="M13.9596 8.00086L17.4512 6.00152L13.9596 3.99869L10.4714 6.00152L13.9596 8.00086Z" fill="#00FFBB"/>
<path d="M10.4714 10.0002V6.00153L13.9596 8.00087V11.9996L10.4714 10.0002Z" fill="#00A57E"/>
<path d="M20.9392 8.00087V11.9996L24.4308 10.0002V6.00153L20.9392 8.00087Z" fill="#2129DB"/>
<path d="M20.9393 8.00086L24.4309 6.00152L20.9393 3.99869L17.4512 6.00152L20.9393 8.00086Z" fill="#2F37FF"/>
<path d="M17.4512 10.0002V6.00153L20.9393 8.00087V11.9996L17.4512 10.0002Z" fill="#0A1393"/>
<path d="M17.4512 10.0002V14.0024L20.9393 11.9996V8.00087L17.4512 10.0002Z" fill="#2129DB"/>
<path d="M17.4511 10.0002L20.9392 8.00087L17.4511 6.00153L13.9595 8.00087L17.4511 10.0002Z" fill="#2F37FF"/>
<path d="M13.9595 11.9996V8.00087L17.4511 10.0002V14.0024L13.9595 11.9996Z" fill="#0A1393"/>
<path d="M3.49158 10.0002V14.0024L6.9797 11.9996V8.00087L3.49158 10.0002Z" fill="#2129DB"/>
<path d="M3.49163 10.0002L6.97975 8.00087L3.49163 6.00153L0 8.00087L3.49163 10.0002Z" fill="#2F37FF"/>
<path d="M0 11.9996V8.00087L3.49163 10.0002V14.0024L0 11.9996Z" fill="#0A1393"/>
<path d="M6.97974 11.9996V16.0017L10.4714 14.0024V10.0002L6.97974 11.9996Z" fill="#2129DB"/>
<path d="M6.9797 11.9996L10.4713 10.0002L6.9797 8.00087L3.49158 10.0002L6.9797 11.9996Z" fill="#2F37FF"/>
<path d="M3.49158 14.0024V10.0002L6.9797 11.9996V16.0017L3.49158 14.0024Z" fill="#0A1393"/>
<path d="M13.9595 11.9996V16.0017L17.4511 14.0024V10.0002L13.9595 11.9996Z" fill="#2129DB"/>
<path d="M13.9596 11.9996L17.4512 10.0002L13.9596 8.00087L10.4714 10.0002L13.9596 11.9996Z" fill="#2F37FF"/>
<path d="M10.4714 14.0024V10.0002L13.9596 11.9996V16.0017L10.4714 14.0024Z" fill="#0A1393"/>
<path d="M10.4714 14.0024V18.0011L13.9596 16.0017V11.9996L10.4714 14.0024Z" fill="#2129DB"/>
<path d="M10.4714 14.0024L13.9595 11.9996L10.4714 10.0002L6.97974 11.9996L10.4714 14.0024Z" fill="#2F37FF"/>
<path d="M6.97974 16.0017V11.9996L10.4714 14.0024V18.0011L6.97974 16.0017Z" fill="#0A1393"/>
<path d="M24.4309 18.0011V21.9998L27.9225 20.0004V16.0017L24.4309 18.0011Z" fill="#2129DB"/>
<path d="M24.4308 18.0011L27.9225 16.0017L24.4308 14.0024L20.9392 16.0017L24.4308 18.0011Z" fill="#2F37FF"/>
<path d="M20.9392 20.0004V16.0017L24.4308 18.0011V21.9998L20.9392 20.0004Z" fill="#0A1393"/>
<path d="M24.4309 14.0024V18.0011L27.9225 16.0017V11.9996L24.4309 14.0024Z" fill="#2129DB"/>
<path d="M24.4308 14.0024L27.9225 11.9996L24.4308 10.0002L20.9392 11.9996L24.4308 14.0024Z" fill="#2F37FF"/>
<path d="M20.9392 16.0017V11.9996L24.4308 14.0024V18.0011L20.9392 16.0017Z" fill="#0A1393"/>
<path d="M24.4309 10.0002V14.0024L27.9225 11.9996V8.00087L24.4309 10.0002Z" fill="url(#paint0_linear_130_147)"/>
<path d="M24.4308 10.0002L27.9225 8.00087L24.4308 6.00153L20.9392 8.00087L24.4308 10.0002Z" fill="#00FFBB"/>
<path d="M20.9392 11.9996V8.00087L24.4308 10.0002V14.0024L20.9392 11.9996Z" fill="#0A1393"/>
<path d="M20.9392 24.0026V28.0013L24.4308 26.002V21.9998L20.9392 24.0026Z" fill="#2129DB"/>
<path d="M20.9393 24.0026L24.4309 21.9998L20.9393 20.0004L17.4512 21.9998L20.9393 24.0026Z" fill="#2F37FF"/>
<path d="M17.4512 26.002V21.9998L20.9393 24.0026V28.0013L17.4512 26.002Z" fill="#0A1393"/>
<path d="M20.9392 20.0004V24.0026L24.4308 21.9998V18.0011L20.9392 20.0004Z" fill="url(#paint1_linear_130_147)"/>
<path d="M20.9393 20.0004L24.4309 18.0011L20.9393 16.0017L17.4512 18.0011L20.9393 20.0004Z" fill="#006B7A"/>
<path d="M17.4512 21.9998V18.0011L20.9393 20.0004V24.0026L17.4512 21.9998Z" fill="#0A1393"/>
<path d="M20.9392 11.9996V16.0017L24.4308 14.0024V10.0002L20.9392 11.9996Z" fill="url(#paint2_linear_130_147)"/>
<path d="M20.9393 11.9996L24.4309 10.0002L20.9393 8.00087L17.4512 10.0002L20.9393 11.9996Z" fill="#00FFBB"/>
<path d="M17.4512 14.0024V10.0002L20.9393 11.9996V16.0017L17.4512 14.0024Z" fill="#0A1393"/>
<path d="M17.4512 26.002V30.0006L20.9393 28.0013V24.0026L17.4512 26.002Z" fill="url(#paint3_linear_130_147)"/>
<path d="M17.4511 26.002L20.9392 24.0026L17.4511 21.9998L13.9595 24.0026L17.4511 26.002Z" fill="#2F37FF"/>
<path d="M13.9595 28.0013V24.0026L17.4511 26.002V30.0006L13.9595 28.0013Z" fill="#0A1393"/>
<path d="M17.4512 21.9998V26.002L20.9393 24.0026V20.0004L17.4512 21.9998Z" fill="url(#paint4_linear_130_147)"/>
<path d="M17.4511 21.9998L20.9392 20.0004L17.4511 18.0011L13.9595 20.0004L17.4511 21.9998Z" fill="#2F37FF"/>
<path d="M13.9595 24.0026V20.0004L17.4511 21.9998V26.002L13.9595 24.0026Z" fill="#0A1393"/>
<path d="M17.4512 18.0011V21.9998L20.9393 20.0004V16.0017L17.4512 18.0011Z" fill="url(#paint5_linear_130_147)"/>
<path d="M17.4511 18.0011L20.9392 16.0017L17.4511 14.0024L13.9595 16.0017L17.4511 18.0011Z" fill="#2F37FF"/>
<path d="M13.9595 20.0004V16.0017L17.4511 18.0011V21.9998L13.9595 20.0004Z" fill="#00A57E"/>
<path d="M17.4512 14.0024V18.0011L20.9393 16.0017V11.9996L17.4512 14.0024Z" fill="url(#paint6_linear_130_147)"/>
<path d="M17.4511 14.0024L20.9392 11.9996L17.4511 10.0002L13.9595 11.9996L17.4511 14.0024Z" fill="#00FFBB"/>
<path d="M13.9595 16.0017V11.9996L17.4511 14.0024V18.0011L13.9595 16.0017Z" fill="#00A57E"/>
<path d="M13.9595 28.0013V32.0035L17.4511 30.0006V26.002L13.9595 28.0013Z" fill="#2129DB"/>
<path d="M13.9596 28.0013L17.4512 26.002L13.9596 24.0026L10.4714 26.002L13.9596 28.0013Z" fill="#2F37FF"/>
<path d="M10.4714 30.0006V26.002L13.9596 28.0013V32.0035L10.4714 30.0006Z" fill="#0A1393"/>
<path d="M13.9595 24.0026V28.0013L17.4511 26.002V21.9998L13.9595 24.0026Z" fill="#2129DB"/>
<path d="M13.9596 24.0026L17.4512 21.9998L13.9596 20.0004L10.4714 21.9998L13.9596 24.0026Z" fill="#2F37FF"/>
<path d="M10.4714 26.002V21.9998L13.9596 24.0026V28.0013L10.4714 26.002Z" fill="#0A1393"/>
<path d="M13.9595 20.0004V24.0026L17.4511 21.9998V18.0011L13.9595 20.0004Z" fill="#2129DB"/>
<path d="M13.9596 20.0004L17.4512 18.0011L13.9596 16.0017L10.4714 18.0011L13.9596 20.0004Z" fill="#2F37FF"/>
<path d="M10.4714 21.9998V18.0011L13.9596 20.0004V24.0026L10.4714 21.9998Z" fill="#0A1393"/>
</g>
<path d="M45.72 23.38C44.4 23.38 43.2867 23.1733 42.38 22.76C41.4733 22.3333 40.7867 21.76 40.32 21.04C39.8533 20.3067 39.62 19.4667 39.62 18.52H42.8C42.8 18.8933 42.9 19.24 43.1 19.56C43.3133 19.88 43.6333 20.14 44.06 20.34C44.4867 20.5267 45.04 20.62 45.72 20.62C46.3333 20.62 46.8467 20.54 47.26 20.38C47.6733 20.22 47.9867 20 48.2 19.72C48.4133 19.4267 48.52 19.0933 48.52 18.72C48.52 18.2533 48.32 17.8867 47.92 17.62C47.52 17.34 46.8733 17.16 45.98 17.08L44.88 16.98C43.4267 16.86 42.2667 16.4067 41.4 15.62C40.5333 14.8333 40.1 13.7933 40.1 12.5C40.1 11.5667 40.32 10.76 40.76 10.08C41.2133 9.39999 41.84 8.87999 42.64 8.51999C43.44 8.14666 44.3867 7.95999 45.48 7.95999C46.6267 7.95999 47.6067 8.15999 48.42 8.55999C49.2467 8.94666 49.88 9.49999 50.32 10.22C50.76 10.9267 50.98 11.76 50.98 12.72H47.78C47.78 12.36 47.6933 12.0333 47.52 11.74C47.3467 11.4333 47.0867 11.1867 46.74 11C46.4067 10.8133 45.9867 10.72 45.48 10.72C45 10.72 44.5933 10.8 44.26 10.96C43.94 11.12 43.7 11.34 43.54 11.62C43.38 11.8867 43.3 12.18 43.3 12.5C43.3 12.9133 43.4467 13.2733 43.74 13.58C44.0333 13.8867 44.5133 14.0667 45.18 14.12L46.3 14.22C47.3667 14.3133 48.3067 14.5467 49.12 14.92C49.9333 15.28 50.5667 15.78 51.02 16.42C51.4867 17.0467 51.72 17.8133 51.72 18.72C51.72 19.6533 51.4733 20.4733 50.98 21.18C50.5 21.8733 49.8133 22.4133 48.92 22.8C48.0267 23.1867 46.96 23.38 45.72 23.38Z" fill="white"/>
<path d="M56.8598 18.82V15.98H59.4798C59.9865 15.98 60.4198 15.88 60.7798 15.68C61.1532 15.48 61.4398 15.2 61.6398 14.84C61.8398 14.4667 61.9398 14.04 61.9398 13.56C61.9398 13.0533 61.8398 12.62 61.6398 12.26C61.4398 11.8867 61.1532 11.6067 60.7798 11.42C60.4198 11.22 59.9865 11.12 59.4798 11.12H56.8598V8.27999H59.3198C60.5598 8.27999 61.6198 8.48666 62.4998 8.89999C63.3932 9.31332 64.0732 9.89999 64.5398 10.66C65.0198 11.42 65.2598 12.3333 65.2598 13.4V13.72C65.2598 14.76 65.0198 15.6667 64.5398 16.44C64.0732 17.2 63.3932 17.7867 62.4998 18.2C61.6198 18.6133 60.5598 18.82 59.3198 18.82H56.8598ZM53.9798 23V8.27999H57.2598V23H53.9798Z" fill="white"/>
<path d="M67.3197 23V8.39999H70.5997V23H67.3197ZM70.1997 23V20.12H76.3197V23H70.1997Z" fill="white"/>
<path d="M77.5167 18.76V15.92H85.9367V18.76H77.5167Z" fill="white"/>
<path d="M90.1416 23V10.86H93.4216V23H90.1416ZM86.0416 11.26V8.39999H97.5416V11.26H86.0416Z" fill="white"/>
<path d="M103.378 23.38C102.418 23.38 101.565 23.2333 100.818 22.94C100.071 22.6333 99.4381 22.22 98.9181 21.7C98.4115 21.18 98.0248 20.5867 97.7581 19.92C97.4915 19.24 97.3581 18.5267 97.3581 17.78V17.32C97.3581 16.56 97.4915 15.84 97.7581 15.16C98.0381 14.4667 98.4381 13.86 98.9581 13.34C99.4915 12.82 100.131 12.4133 100.878 12.12C101.625 11.8133 102.458 11.66 103.378 11.66C104.325 11.66 105.165 11.8133 105.898 12.12C106.645 12.4133 107.278 12.82 107.798 13.34C108.318 13.86 108.718 14.4667 108.998 15.16C109.278 15.84 109.418 16.56 109.418 17.32V17.78C109.418 18.5267 109.285 19.24 109.018 19.92C108.751 20.5867 108.358 21.18 107.838 21.7C107.331 22.22 106.705 22.6333 105.958 22.94C105.211 23.2333 104.351 23.38 103.378 23.38ZM103.378 20.68C104.005 20.68 104.525 20.5467 104.938 20.28C105.351 20.0133 105.665 19.64 105.878 19.16C106.105 18.68 106.218 18.1467 106.218 17.56C106.218 16.9333 106.105 16.3867 105.878 15.92C105.651 15.44 105.325 15.06 104.898 14.78C104.485 14.5 103.978 14.36 103.378 14.36C102.791 14.36 102.285 14.5 101.858 14.78C101.431 15.06 101.105 15.44 100.878 15.92C100.665 16.3867 100.558 16.9333 100.558 17.56C100.558 18.1467 100.665 18.68 100.878 19.16C101.091 19.64 101.411 20.0133 101.838 20.28C102.265 20.5467 102.778 20.68 103.378 20.68Z" fill="white"/>
<path d="M119.371 23L115.911 17.88H114.371L118.831 12.04H122.191L117.991 17.48L118.031 15.92L122.971 23H119.371ZM111.651 23V8.39999H114.851V23H111.651Z" fill="white"/>
<path d="M129.035 23.38C128.101 23.38 127.275 23.22 126.555 22.9C125.848 22.58 125.255 22.1533 124.775 21.62C124.308 21.0733 123.948 20.4667 123.695 19.8C123.455 19.12 123.335 18.4267 123.335 17.72V17.32C123.335 16.5867 123.455 15.8867 123.695 15.22C123.948 14.54 124.308 13.9333 124.775 13.4C125.241 12.8667 125.821 12.4467 126.515 12.14C127.221 11.82 128.021 11.66 128.915 11.66C130.088 11.66 131.075 11.9267 131.875 12.46C132.688 12.98 133.308 13.6667 133.735 14.52C134.161 15.36 134.375 16.28 134.375 17.28V18.36H124.675V16.54H132.435L131.395 17.38C131.395 16.7267 131.301 16.1667 131.115 15.7C130.928 15.2333 130.648 14.88 130.275 14.64C129.915 14.3867 129.461 14.26 128.915 14.26C128.355 14.26 127.881 14.3867 127.495 14.64C127.108 14.8933 126.815 15.2667 126.615 15.76C126.415 16.24 126.315 16.8333 126.315 17.54C126.315 18.1933 126.408 18.7667 126.595 19.26C126.781 19.74 127.075 20.1133 127.475 20.38C127.875 20.6467 128.395 20.78 129.035 20.78C129.621 20.78 130.101 20.6667 130.475 20.44C130.848 20.2133 131.101 19.9333 131.235 19.6H134.175C134.015 20.3333 133.701 20.9867 133.235 21.56C132.768 22.1333 132.181 22.58 131.475 22.9C130.768 23.22 129.955 23.38 129.035 23.38Z" fill="white"/>
<path d="M136.495 23V12.04H139.035V16.74H138.855C138.855 15.62 138.995 14.6867 139.275 13.94C139.568 13.1933 140.008 12.6333 140.595 12.26C141.182 11.8867 141.895 11.7 142.735 11.7H142.875C144.155 11.7 145.128 12.12 145.795 12.96C146.475 13.7867 146.815 15.0467 146.815 16.74V23H143.615V16.56C143.615 15.9733 143.442 15.4933 143.095 15.12C142.748 14.7467 142.282 14.56 141.695 14.56C141.095 14.56 140.608 14.7533 140.235 15.14C139.875 15.5133 139.695 16.0067 139.695 16.62V23H136.495Z" fill="white"/>
<defs>
<linearGradient id="paint0_linear_130_147" x1="26.6136" y1="10.5784" x2="16.7403" y2="20.2201" gradientUnits="userSpaceOnUse">
<stop stop-color="#00FFBB"/>
<stop offset="1" stop-color="#00C1FF"/>
</linearGradient>
<linearGradient id="paint1_linear_130_147" x1="29.9578" y1="14.0059" x2="20.0844" y2="23.6476" gradientUnits="userSpaceOnUse">
<stop stop-color="#00FFBB"/>
<stop offset="1" stop-color="#00C1FF"/>
</linearGradient>
<linearGradient id="paint2_linear_130_147" x1="25.9293" y1="9.8783" x2="16.0559" y2="19.52" gradientUnits="userSpaceOnUse">
<stop stop-color="#00FFBB"/>
<stop offset="1" stop-color="#00C1FF"/>
</linearGradient>
<linearGradient id="paint3_linear_130_147" x1="31.2879" y1="15.3678" x2="21.4145" y2="25.0095" gradientUnits="userSpaceOnUse">
<stop stop-color="#00FFBB"/>
<stop offset="1" stop-color="#00C1FF"/>
</linearGradient>
<linearGradient id="paint4_linear_130_147" x1="29.2736" y1="13.3057" x2="19.4002" y2="22.9474" gradientUnits="userSpaceOnUse">
<stop stop-color="#00FFBB"/>
<stop offset="1" stop-color="#00C1FF"/>
</linearGradient>
<linearGradient id="paint5_linear_130_147" x1="27.2593" y1="11.2402" x2="17.386" y2="20.8819" gradientUnits="userSpaceOnUse">
<stop stop-color="#00FFBB"/>
<stop offset="1" stop-color="#00C1FF"/>
</linearGradient>
<linearGradient id="paint6_linear_130_147" x1="25.2451" y1="9.17818" x2="15.3717" y2="18.8199" gradientUnits="userSpaceOnUse">
<stop stop-color="#00FFBB"/>
<stop offset="1" stop-color="#00C1FF"/>
</linearGradient>
<clipPath id="clip0_130_147">
<rect width="27.9225" height="32" fill="white"/>
</clipPath>
</defs>
</svg>
