<svg width="322" height="70" viewBox="0 0 322 70" fill="none" xmlns="http://www.w3.org/2000/svg">
<g clip-path="url(#clip0_14_14893)">
<path d="M30.5364 8.74711V17.5019L38.1743 13.1283V4.37354L30.5364 8.74711Z" fill="#2129DB"/>
<path d="M30.5364 8.74714L38.1743 4.37357L30.5364 0L22.9061 4.37357L30.5364 8.74714Z" fill="#00FFBB"/>
<path d="M22.9061 13.1283V4.37354L30.5364 8.74711V17.5019L22.9061 13.1283Z" fill="#0A1393"/>
<path d="M22.9061 13.1283V21.8754L30.5364 17.5018V8.74707L22.9061 13.1283Z" fill="#2129DB"/>
<path d="M22.9061 13.1283L30.5364 8.74711L22.9061 4.37354L15.2682 8.74711L22.9061 13.1283Z" fill="#00FFBB"/>
<path d="M15.2682 17.5018V8.74707L22.9061 13.1283V21.8754L15.2682 17.5018Z" fill="#0A1393"/>
<path d="M38.1743 13.1283V21.8754L45.8046 17.5018V8.74707L38.1743 13.1283Z" fill="#2129DB"/>
<path d="M38.1743 13.1283L45.8046 8.74711L38.1743 4.37354L30.5364 8.74711L38.1743 13.1283Z" fill="#2F37FF"/>
<path d="M30.5364 17.5018V8.74707L38.1743 13.1283V21.8754L30.5364 17.5018Z" fill="#0A1393"/>
<path d="M7.63794 48.1246V56.8793L15.2682 52.5057V43.751L7.63794 48.1246Z" fill="#006B7A"/>
<path d="M7.63794 48.1246L15.2682 43.751L7.63794 39.3774L0 43.751L7.63794 48.1246Z" fill="#2F37FF"/>
<path d="M0 52.5057V43.751L7.63794 48.1246V56.8793L0 52.5057Z" fill="#00A57E"/>
<path d="M7.63794 39.3775V48.1246L15.2682 43.7511V35.0039L7.63794 39.3775Z" fill="#006B7A"/>
<path d="M7.63794 39.3773L15.2682 35.0037L7.63794 30.6301L0 35.0037L7.63794 39.3773Z" fill="#2F37FF"/>
<path d="M0 43.7511V35.0039L7.63794 39.3775V48.1246L0 43.7511Z" fill="#00A57E"/>
<path d="M7.63794 30.6302V39.3774L15.2682 35.0038V26.249L7.63794 30.6302Z" fill="#2129DB"/>
<path d="M7.63794 30.6303L15.2682 26.2491L7.63794 21.8755L0 26.2491L7.63794 30.6303Z" fill="#2F37FF"/>
<path d="M0 35.0038V26.249L7.63794 30.6302V39.3774L0 35.0038Z" fill="#00A57E"/>
<path d="M38.1743 56.8792V65.6263L45.8046 61.2528V52.5056L38.1743 56.8792Z" fill="#2129DB"/>
<path d="M38.1743 56.8793L45.8046 52.5057L38.1743 48.1245L30.5364 52.5057L38.1743 56.8793Z" fill="#2F37FF"/>
<path d="M30.5364 61.2528V52.5056L38.1743 56.8792V65.6263L30.5364 61.2528Z" fill="#0A1393"/>
<path d="M30.5364 52.5057V61.2528L38.1743 56.8793V48.1245L30.5364 52.5057Z" fill="#2129DB"/>
<path d="M30.5364 52.5057L38.1743 48.1246L30.5364 43.751L22.9061 48.1246L30.5364 52.5057Z" fill="#2F37FF"/>
<path d="M22.9061 56.8793V48.1245L30.5364 52.5057V61.2528L22.9061 56.8793Z" fill="#0A1393"/>
<path d="M38.1743 30.6302V39.3774L45.8046 35.0038V26.249L38.1743 30.6302Z" fill="#2129DB"/>
<path d="M38.1743 30.6303L45.8046 26.2491L38.1743 21.8755L30.5364 26.2491L38.1743 30.6303Z" fill="#2F37FF"/>
<path d="M30.5364 35.0038V26.249L38.1743 30.6302V39.3774L30.5364 35.0038Z" fill="#0A1393"/>
<path d="M15.2682 35.0037V43.7508L22.9061 39.3773V30.6301L15.2682 35.0037Z" fill="#2129DB"/>
<path d="M15.2682 35.0038L22.9061 30.6302L15.2682 26.249L7.63794 30.6302L15.2682 35.0038Z" fill="#2F37FF"/>
<path d="M7.63794 39.3773V30.6301L15.2682 35.0037V43.7508L7.63794 39.3773Z" fill="#00A57E"/>
<path d="M22.9061 56.8792V65.6263L30.5364 61.2528V52.5056L22.9061 56.8792Z" fill="#2129DB"/>
<path d="M22.9061 56.8793L30.5364 52.5057L22.9061 48.1245L15.2682 52.5057L22.9061 56.8793Z" fill="#2F37FF"/>
<path d="M15.2682 61.2528V52.5056L22.9061 56.8792V65.6263L15.2682 61.2528Z" fill="#00A57E"/>
<path d="M22.9061 48.1246V56.8793L30.5364 52.5057V43.751L22.9061 48.1246Z" fill="#2129DB"/>
<path d="M22.9061 48.1246L30.5364 43.751L22.9061 39.3774L15.2682 43.751L22.9061 48.1246Z" fill="#2F37FF"/>
<path d="M15.2682 52.5057V43.751L22.9061 48.1246V56.8793L15.2682 52.5057Z" fill="#00A57E"/>
<path d="M22.9061 39.3775V48.1246L30.5364 43.7511V35.0039L22.9061 39.3775Z" fill="#2129DB"/>
<path d="M22.9061 39.3773L30.5364 35.0037L22.9061 30.6301L15.2682 35.0037L22.9061 39.3773Z" fill="#2F37FF"/>
<path d="M15.2682 43.7511V35.0039L22.9061 39.3775V48.1246L15.2682 43.7511Z" fill="#00A57E"/>
<path d="M15.2682 17.502V26.2491L22.9061 21.8756V13.1284L15.2682 17.502Z" fill="#006B7A"/>
<path d="M15.2682 17.5018L22.9061 13.1283L15.2682 8.74707L7.63794 13.1283L15.2682 17.5018Z" fill="#00FFBB"/>
<path d="M7.63794 21.8756V13.1284L15.2682 17.502V26.2491L7.63794 21.8756Z" fill="#0A1393"/>
<path d="M30.5364 17.502V26.2491L38.1743 21.8756V13.1284L30.5364 17.502Z" fill="#2129DB"/>
<path d="M30.5364 17.5018L38.1743 13.1283L30.5364 8.74707L22.9061 13.1283L30.5364 17.5018Z" fill="#00FFBB"/>
<path d="M22.9061 21.8756V13.1284L30.5364 17.502V26.2491L22.9061 21.8756Z" fill="#00A57E"/>
<path d="M45.8047 17.502V26.2491L53.4426 21.8756V13.1284L45.8047 17.502Z" fill="#2129DB"/>
<path d="M45.8046 17.5018L53.4425 13.1283L45.8046 8.74707L38.1743 13.1283L45.8046 17.5018Z" fill="#2F37FF"/>
<path d="M38.1743 21.8756V13.1284L45.8046 17.502V26.2491L38.1743 21.8756Z" fill="#0A1393"/>
<path d="M38.1743 21.8755V30.6303L45.8046 26.2491V17.502L38.1743 21.8755Z" fill="#2129DB"/>
<path d="M38.1743 21.8756L45.8046 17.502L38.1743 13.1284L30.5364 17.502L38.1743 21.8756Z" fill="#2F37FF"/>
<path d="M30.5364 26.2491V17.502L38.1743 21.8755V30.6303L30.5364 26.2491Z" fill="#0A1393"/>
<path d="M7.63794 21.8755V30.6303L15.2682 26.2491V17.502L7.63794 21.8755Z" fill="#2129DB"/>
<path d="M7.63794 21.8756L15.2682 17.502L7.63794 13.1284L0 17.502L7.63794 21.8756Z" fill="#2F37FF"/>
<path d="M0 26.2491V17.502L7.63794 21.8755V30.6303L0 26.2491Z" fill="#0A1393"/>
<path d="M15.2682 26.2491V35.0038L22.9061 30.6302V21.8755L15.2682 26.2491Z" fill="#2129DB"/>
<path d="M15.2682 26.2491L22.9061 21.8755L15.2682 17.502L7.63794 21.8755L15.2682 26.2491Z" fill="#2F37FF"/>
<path d="M7.63794 30.6302V21.8755L15.2682 26.2491V35.0038L7.63794 30.6302Z" fill="#0A1393"/>
<path d="M30.5364 26.2491V35.0038L38.1743 30.6302V21.8755L30.5364 26.2491Z" fill="#2129DB"/>
<path d="M30.5364 26.2491L38.1743 21.8755L30.5364 17.502L22.9061 21.8755L30.5364 26.2491Z" fill="#2F37FF"/>
<path d="M22.9061 30.6302V21.8755L30.5364 26.2491V35.0038L22.9061 30.6302Z" fill="#0A1393"/>
<path d="M22.9061 30.6302V39.3774L30.5364 35.0038V26.249L22.9061 30.6302Z" fill="#2129DB"/>
<path d="M22.9061 30.6303L30.5364 26.2491L22.9061 21.8755L15.2682 26.2491L22.9061 30.6303Z" fill="#2F37FF"/>
<path d="M15.2682 35.0038V26.249L22.9061 30.6302V39.3774L15.2682 35.0038Z" fill="#0A1393"/>
<path d="M53.4426 39.3775V48.1246L61.0806 43.7511V35.0039L53.4426 39.3775Z" fill="#2129DB"/>
<path d="M53.4426 39.3773L61.0806 35.0037L53.4426 30.6301L45.8047 35.0037L53.4426 39.3773Z" fill="#2F37FF"/>
<path d="M45.8047 43.7511V35.0039L53.4426 39.3775V48.1246L45.8047 43.7511Z" fill="#0A1393"/>
<path d="M53.4426 30.6302V39.3774L61.0806 35.0038V26.249L53.4426 30.6302Z" fill="#2129DB"/>
<path d="M53.4426 30.6303L61.0806 26.2491L53.4426 21.8755L45.8047 26.2491L53.4426 30.6303Z" fill="#2F37FF"/>
<path d="M45.8047 35.0038V26.249L53.4426 30.6302V39.3774L45.8047 35.0038Z" fill="#0A1393"/>
<path d="M53.4426 21.8755V30.6303L61.0806 26.2491V17.502L53.4426 21.8755Z" fill="url(#paint0_linear_14_14893)"/>
<path d="M53.4426 21.8756L61.0806 17.502L53.4426 13.1284L45.8047 17.502L53.4426 21.8756Z" fill="#00FFBB"/>
<path d="M45.8047 26.2491V17.502L53.4426 21.8755V30.6303L45.8047 26.2491Z" fill="#0A1393"/>
<path d="M45.8047 52.5057V61.2528L53.4426 56.8793V48.1245L45.8047 52.5057Z" fill="#2129DB"/>
<path d="M45.8046 52.5057L53.4425 48.1246L45.8046 43.751L38.1743 48.1246L45.8046 52.5057Z" fill="#2F37FF"/>
<path d="M38.1743 56.8793V48.1245L45.8046 52.5057V61.2528L38.1743 56.8793Z" fill="#0A1393"/>
<path d="M45.8047 43.751V52.5058L53.4426 48.1246V39.3774L45.8047 43.751Z" fill="url(#paint1_linear_14_14893)"/>
<path d="M45.8046 43.751L53.4425 39.3775L45.8046 35.0039L38.1743 39.3775L45.8046 43.751Z" fill="#006B7A"/>
<path d="M38.1743 48.1246V39.3774L45.8046 43.751V52.5058L38.1743 48.1246Z" fill="#0A1393"/>
<path d="M45.8047 26.2491V35.0038L53.4426 30.6302V21.8755L45.8047 26.2491Z" fill="url(#paint2_linear_14_14893)"/>
<path d="M45.8046 26.2491L53.4425 21.8755L45.8046 17.502L38.1743 21.8755L45.8046 26.2491Z" fill="#00FFBB"/>
<path d="M38.1743 30.6302V21.8755L45.8046 26.2491V35.0038L38.1743 30.6302Z" fill="#0A1393"/>
<path d="M38.1743 56.8792V65.6263L45.8046 61.2528V52.5056L38.1743 56.8792Z" fill="url(#paint3_linear_14_14893)"/>
<path d="M38.1743 56.8793L45.8046 52.5057L38.1743 48.1245L30.5364 52.5057L38.1743 56.8793Z" fill="#2F37FF"/>
<path d="M30.5364 61.2528V52.5056L38.1743 56.8792V65.6263L30.5364 61.2528Z" fill="#0A1393"/>
<path d="M38.1743 48.1246V56.8793L45.8046 52.5057V43.751L38.1743 48.1246Z" fill="url(#paint4_linear_14_14893)"/>
<path d="M38.1743 48.1246L45.8046 43.751L38.1743 39.3774L30.5364 43.751L38.1743 48.1246Z" fill="#2F37FF"/>
<path d="M30.5364 52.5057V43.751L38.1743 48.1246V56.8793L30.5364 52.5057Z" fill="#0A1393"/>
<path d="M38.1743 39.3775V48.1246L45.8046 43.7511V35.0039L38.1743 39.3775Z" fill="url(#paint5_linear_14_14893)"/>
<path d="M38.1743 39.3773L45.8046 35.0037L38.1743 30.6301L30.5364 35.0037L38.1743 39.3773Z" fill="#2F37FF"/>
<path d="M30.5364 43.7511V35.0039L38.1743 39.3775V48.1246L30.5364 43.7511Z" fill="#00A57E"/>
<path d="M38.1743 30.6302V39.3774L45.8046 35.0038V26.249L38.1743 30.6302Z" fill="url(#paint6_linear_14_14893)"/>
<path d="M38.1743 30.6303L45.8046 26.2491L38.1743 21.8755L30.5364 26.2491L38.1743 30.6303Z" fill="#00FFBB"/>
<path d="M30.5364 35.0038V26.249L38.1743 30.6302V39.3774L30.5364 35.0038Z" fill="#00A57E"/>
<path d="M30.5364 61.253V70.0077L38.1743 65.6265V56.8794L30.5364 61.253Z" fill="#2129DB"/>
<path d="M30.5364 61.2528L38.1743 56.8792L30.5364 52.5056L22.9061 56.8792L30.5364 61.2528Z" fill="#2F37FF"/>
<path d="M22.9061 65.6265V56.8794L30.5364 61.253V70.0077L22.9061 65.6265Z" fill="#0A1393"/>
<path d="M30.5364 52.5057V61.2528L38.1743 56.8793V48.1245L30.5364 52.5057Z" fill="#2129DB"/>
<path d="M30.5364 52.5057L38.1743 48.1246L30.5364 43.751L22.9061 48.1246L30.5364 52.5057Z" fill="#2F37FF"/>
<path d="M22.9061 56.8793V48.1245L30.5364 52.5057V61.2528L22.9061 56.8793Z" fill="#0A1393"/>
<path d="M30.5364 43.751V52.5058L38.1743 48.1246V39.3774L30.5364 43.751Z" fill="#2129DB"/>
<path d="M30.5364 43.751L38.1743 39.3775L30.5364 35.0039L22.9061 39.3775L30.5364 43.751Z" fill="#2F37FF"/>
<path d="M22.9061 48.1246V39.3774L30.5364 43.751V52.5058L22.9061 48.1246Z" fill="#0A1393"/>
</g>
<path d="M100.012 51.1439C97.125 51.1439 94.6895 50.6918 92.7062 49.7876C90.7229 48.8543 89.2208 47.6001 88.2 46.0251C87.1791 44.4209 86.6687 42.5834 86.6687 40.5126H93.625C93.625 41.3293 93.8437 42.0876 94.2812 42.7876C94.7479 43.4876 95.4479 44.0564 96.3812 44.4939C97.3145 44.9022 98.525 45.1064 100.012 45.1064C101.354 45.1064 102.477 44.9314 103.381 44.5814C104.285 44.2314 104.971 43.7501 105.437 43.1376C105.904 42.4959 106.137 41.7668 106.137 40.9501C106.137 39.9293 105.7 39.1272 104.825 38.5438C103.95 37.9313 102.535 37.5376 100.581 37.3626L98.175 37.1439C94.9958 36.8814 92.4583 35.8897 90.5625 34.1688C88.6666 32.448 87.7187 30.173 87.7187 27.3438C87.7187 25.3022 88.2 23.5376 89.1625 22.0501C90.1541 20.5626 91.525 19.4251 93.275 18.6376C95.025 17.8209 97.0958 17.4126 99.4875 17.4126C101.996 17.4126 104.14 17.8501 105.919 18.7251C107.727 19.5709 109.112 20.7813 110.075 22.3563C111.037 23.9022 111.519 25.7251 111.519 27.8251H104.519C104.519 27.0376 104.329 26.323 103.95 25.6813C103.571 25.0105 103.002 24.4709 102.244 24.0626C101.515 23.6543 100.596 23.4501 99.4875 23.4501C98.4375 23.4501 97.5479 23.6251 96.8187 23.9751C96.1187 24.3251 95.5937 24.8063 95.2437 25.4188C94.8937 26.0022 94.7187 26.6438 94.7187 27.3438C94.7187 28.248 95.0395 29.0355 95.6812 29.7063C96.3229 30.3772 97.3729 30.7709 98.8312 30.8876L101.281 31.1063C103.615 31.3105 105.671 31.8209 107.45 32.6376C109.229 33.4251 110.615 34.5189 111.606 35.9188C112.627 37.2897 113.137 38.9668 113.137 40.9501C113.137 42.9918 112.598 44.7855 111.519 46.3314C110.469 47.848 108.967 49.0293 107.012 49.8751C105.058 50.7209 102.725 51.1439 100.012 51.1439Z" fill="white"/>
<path d="M124.381 41.1689V34.9564H130.112C131.22 34.9564 132.168 34.7376 132.956 34.3001C133.773 33.8626 134.4 33.2501 134.837 32.4626C135.275 31.6459 135.493 30.7126 135.493 29.6626C135.493 28.5543 135.275 27.6063 134.837 26.8189C134.4 26.0022 133.773 25.3897 132.956 24.9813C132.168 24.5438 131.22 24.3251 130.112 24.3251H124.381V18.1126H129.762C132.475 18.1126 134.793 18.5647 136.718 19.4688C138.673 20.373 140.16 21.6563 141.181 23.3188C142.231 24.9813 142.756 26.9793 142.756 29.3126V30.0126C142.756 32.2876 142.231 34.2709 141.181 35.9626C140.16 37.6251 138.673 38.9084 136.718 39.8126C134.793 40.7168 132.475 41.1689 129.762 41.1689H124.381ZM118.081 50.3126V18.1126H125.256V50.3126H118.081Z" fill="white"/>
<path d="M147.262 50.3126V18.3751H154.437V50.3126H147.262ZM153.562 50.3126V44.0126H166.949V50.3126H153.562Z" fill="white"/>
<path d="M169.568 41.0376V34.8251H187.987V41.0376H169.568Z" fill="white"/>
<path d="M197.185 50.3126V23.7563H204.36V50.3126H197.185ZM188.216 24.6313V18.3751H213.372V24.6313H188.216Z" fill="white"/>
<path d="M226.14 51.1439C224.04 51.1439 222.173 50.823 220.54 50.1814C218.906 49.5105 217.521 48.6064 216.383 47.4689C215.275 46.3314 214.429 45.0334 213.846 43.5751C213.263 42.0876 212.971 40.5272 212.971 38.8939V37.8876C212.971 36.2251 213.263 34.6501 213.846 33.1626C214.458 31.6459 215.333 30.3188 216.471 29.1814C217.638 28.0438 219.038 27.1543 220.671 26.5126C222.304 25.8418 224.127 25.5063 226.14 25.5063C228.21 25.5063 230.048 25.8418 231.652 26.5126C233.285 27.1543 234.671 28.0438 235.808 29.1814C236.946 30.3188 237.821 31.6459 238.433 33.1626C239.046 34.6501 239.352 36.2251 239.352 37.8876V38.8939C239.352 40.5272 239.06 42.0876 238.477 43.5751C237.894 45.0334 237.033 46.3314 235.896 47.4689C234.788 48.6064 233.417 49.5105 231.783 50.1814C230.15 50.823 228.269 51.1439 226.14 51.1439ZM226.14 45.2376C227.51 45.2376 228.648 44.9459 229.552 44.3626C230.456 43.7793 231.142 42.9626 231.608 41.9126C232.104 40.8626 232.352 39.6959 232.352 38.4126C232.352 37.0418 232.104 35.8459 231.608 34.8251C231.113 33.7751 230.398 32.9439 229.465 32.3314C228.56 31.7189 227.452 31.4126 226.14 31.4126C224.856 31.4126 223.748 31.7189 222.815 32.3314C221.881 32.9439 221.167 33.7751 220.671 34.8251C220.204 35.8459 219.971 37.0418 219.971 38.4126C219.971 39.6959 220.204 40.8626 220.671 41.9126C221.138 42.9626 221.838 43.7793 222.771 44.3626C223.704 44.9459 224.827 45.2376 226.14 45.2376Z" fill="white"/>
<path d="M261.125 50.3126L253.556 39.1126H250.187L259.944 26.3376H267.294L258.106 38.2376L258.194 34.8251L269 50.3126H261.125ZM244.237 50.3126V18.3751H251.237V50.3126H244.237Z" fill="white"/>
<path d="M282.263 51.1439C280.222 51.1439 278.413 50.7939 276.838 50.0939C275.293 49.3939 273.995 48.4605 272.945 47.2939C271.924 46.098 271.136 44.7709 270.582 43.3126C270.057 41.8251 269.795 40.3084 269.795 38.7626V37.8876C269.795 36.2834 270.057 34.7522 270.582 33.2938C271.136 31.8063 271.924 30.4793 272.945 29.3126C273.965 28.1459 275.234 27.2272 276.751 26.5563C278.297 25.8563 280.047 25.5063 282.001 25.5063C284.568 25.5063 286.726 26.0897 288.476 27.2563C290.255 28.3938 291.611 29.8959 292.545 31.7626C293.478 33.6001 293.945 35.6126 293.945 37.8001V40.1626H272.726V36.1813H289.701L287.426 38.0189C287.426 36.5897 287.222 35.3647 286.813 34.3439C286.405 33.323 285.793 32.5501 284.976 32.0251C284.188 31.4709 283.197 31.1939 282.001 31.1939C280.776 31.1939 279.74 31.4709 278.895 32.0251C278.049 32.5793 277.407 33.3959 276.97 34.4751C276.532 35.5251 276.313 36.823 276.313 38.3689C276.313 39.798 276.518 41.0522 276.926 42.1314C277.334 43.1814 277.976 43.998 278.851 44.5814C279.726 45.1647 280.863 45.4564 282.263 45.4564C283.547 45.4564 284.597 45.2084 285.413 44.7126C286.23 44.2168 286.784 43.6043 287.076 42.8751H293.507C293.157 44.4793 292.472 45.9084 291.451 47.1626C290.43 48.4168 289.147 49.3939 287.601 50.0939C286.055 50.7939 284.276 51.1439 282.263 51.1439Z" fill="white"/>
<path d="M298.583 50.3126V26.3376H304.139V36.6189H303.746C303.746 34.1689 304.052 32.1272 304.664 30.4938C305.306 28.8605 306.269 27.6355 307.552 26.8189C308.835 26.0022 310.396 25.5939 312.233 25.5939H312.539C315.339 25.5939 317.469 26.5126 318.927 28.3501C320.414 30.1584 321.158 32.9147 321.158 36.6189V50.3126H314.158V36.2251C314.158 34.9418 313.779 33.8918 313.021 33.0751C312.262 32.2584 311.241 31.8501 309.958 31.8501C308.646 31.8501 307.581 32.273 306.764 33.1188C305.977 33.9355 305.583 35.0147 305.583 36.3564V50.3126H298.583Z" fill="white"/>
<defs>
<linearGradient id="paint0_linear_14_14893" x1="58.2173" y1="23.1404" x2="36.6193" y2="44.2315" gradientUnits="userSpaceOnUse">
<stop stop-color="#00FFBB"/>
<stop offset="1" stop-color="#00C1FF"/>
</linearGradient>
<linearGradient id="paint1_linear_14_14893" x1="65.5328" y1="30.6379" x2="43.9349" y2="51.7291" gradientUnits="userSpaceOnUse">
<stop stop-color="#00FFBB"/>
<stop offset="1" stop-color="#00C1FF"/>
</linearGradient>
<linearGradient id="paint2_linear_14_14893" x1="56.7204" y1="21.6088" x2="35.1225" y2="42.7" gradientUnits="userSpaceOnUse">
<stop stop-color="#00FFBB"/>
<stop offset="1" stop-color="#00C1FF"/>
</linearGradient>
<linearGradient id="paint3_linear_14_14893" x1="68.4421" y1="33.617" x2="46.8441" y2="54.7082" gradientUnits="userSpaceOnUse">
<stop stop-color="#00FFBB"/>
<stop offset="1" stop-color="#00C1FF"/>
</linearGradient>
<linearGradient id="paint4_linear_14_14893" x1="64.0359" y1="29.1064" x2="42.4379" y2="50.1975" gradientUnits="userSpaceOnUse">
<stop stop-color="#00FFBB"/>
<stop offset="1" stop-color="#00C1FF"/>
</linearGradient>
<linearGradient id="paint5_linear_14_14893" x1="59.6297" y1="24.5881" x2="38.0317" y2="45.6793" gradientUnits="userSpaceOnUse">
<stop stop-color="#00FFBB"/>
<stop offset="1" stop-color="#00C1FF"/>
</linearGradient>
<linearGradient id="paint6_linear_14_14893" x1="55.2234" y1="20.0773" x2="33.6255" y2="41.1684" gradientUnits="userSpaceOnUse">
<stop stop-color="#00FFBB"/>
<stop offset="1" stop-color="#00C1FF"/>
</linearGradient>
<clipPath id="clip0_14_14893">
<rect width="61.0805" height="70" fill="white"/>
</clipPath>
</defs>
</svg>
